# xmcd
# 
# Track frame offsets:
#     183
#     17780
#     36375
#     53235
#     73255
#     101445
#     121988
#     140578
#     159660
#     176823
# 
# Disc length: 2714
# 
# Revision: 47
# Processed by: cddbd v1.5.2PL0 Copyright (c) Steve Scherf et al.
# Submitted via: fre:ac v1.0.27
# 
DISCID=910a980a
DTITLE=Def Leppard - Pyromania
DYEAR=1983
DGENRE=Hard Rock
TTITLE0=Rock Rock (Till You Drop)
TTITLE1=Photograph
TTITLE2=Stagefright
TTITLE3=Too Late for Love
TTITLE4=Die Hard the Hunter
TTITLE5=Foolin'
TTITLE6=Rock of Ages
TTITLE7=Comin' Under Fire
TTITLE8=Action! Not Words
TTITLE9=Billy's Got a Gun
EXTD=
EXTT0=
EXTT1=
EXTT2=
EXTT3=
EXTT4=
EXTT5=
EXTT6=
EXTT7=
EXTT8=
EXTT9=
PLAYORDER=
